<svg width="512" height="309" xmlns="http://www.w3.org/2000/svg" preserveAspectRatio="xMidYMid">

 <g>
  <title>background</title>
  <rect fill="none" id="canvas_background" height="602" width="802" y="-1" x="-1"/>
 </g>
 <g>
  <title>Layer 1</title>
  <g id="svg_1">
   <path id="svg_2" fill-rule="nonzero" fill="#ffffff" d="m120.81043,80.56131l96.56789,0l0,7.67535l-87.71583,0l0,57.7671l82.48507,0l0,7.67535l-82.48507,0l0,63.42261l88.72175,0l0,7.67535l-97.57381,0l0,-144.21576zm105.21877,0l10.26034,0l45.46738,63.42262l46.4733,-63.42262l63.21127,-80.56131l-103.85026,150.64936l53.51471,74.12771l-10.6627,0l-48.68632,-67.46227l-48.88749,67.46227l-10.46153,0l53.91708,-74.12771l-50.29578,-70.08805zm118.89922,7.67535l0,-7.67535l110.04717,0l0,7.67535l-50.69815,0l0,136.54041l-8.85206,0l0,-136.54041l-50.49696,0zm-344.92842,-7.67535l11.06507,0l152.58086,228.3227l-63.05437,-84.10694l-91.33714,-133.30869l-0.40236,133.30869l-8.85206,0l0,-144.21576zm454.08371,134.22416c-1.80854,0 -3.16495,-1.40129 -3.16495,-3.21219c0,-1.81089 1.35641,-3.21218 3.16495,-3.21218c1.83006,0 3.16494,1.40129 3.16494,3.21218c0,1.8109 -1.33488,3.21219 -3.16494,3.21219zm8.69821,-8.45085l4.73664,0c0.06459,2.56544 1.93772,4.2901 4.69359,4.2901c3.07882,0 4.82277,-1.85402 4.82277,-5.3249l0,-21.98946l4.82277,0l0,22.01102c0,6.2519 -3.61708,9.85214 -9.60248,9.85214c-5.61939,0 -9.47329,-3.49244 -9.47329,-8.8389zm25.38412,-0.28026l4.77971,0c0.40908,2.95349 3.29413,4.82906 7.44946,4.82906c3.87544,0 6.71743,-2.00492 6.71743,-4.76438c0,-2.37142 -1.80854,-3.79426 -5.92081,-4.76439l-4.00462,-0.97012c-5.61939,-1.31506 -8.18149,-4.0314 -8.18149,-8.60176c0,-5.54048 4.52135,-9.22695 11.30337,-9.22695c6.30835,0 10.91582,3.68647 11.19571,8.92513l-4.69358,0c-0.45214,-2.86725 -2.94964,-4.65658 -6.56672,-4.65658c-3.81085,0 -6.35142,1.83245 -6.35142,4.63503c0,2.2205 1.6363,3.49244 5.68398,4.44101l3.42331,0.84077c6.37294,1.48752 8.99963,4.07452 8.99963,8.75267c0,5.95009 -4.60747,9.67967 -11.9708,9.67967c-6.88967,0 -11.51867,-3.55712 -11.86316,-9.11916z"/>
  </g>
 </g>
</svg>